<?xml version="1.0" encoding="UTF-8" standalone="no"?>
<!-- Created with Inkscape (http://www.inkscape.org/) -->

<svg
   xmlns:dc="http://purl.org/dc/elements/1.1/"
   xmlns:cc="http://creativecommons.org/ns#"
   xmlns:rdf="http://www.w3.org/1999/02/22-rdf-syntax-ns#"
   xmlns:svg="http://www.w3.org/2000/svg"
   xmlns="http://www.w3.org/2000/svg"
   xmlns:sodipodi="http://sodipodi.sourceforge.net/DTD/sodipodi-0.dtd"
   xmlns:inkscape="http://www.inkscape.org/namespaces/inkscape"
   width="96"
   height="96"
   id="svg3941"
   version="1.1"
   inkscape:version="0.48.5 r10040"
   sodipodi:docname="facebook_gray.svg">
  <defs
     id="defs3943" />
  <sodipodi:namedview
     id="base"
     pagecolor="#ffffff"
     bordercolor="#666666"
     borderopacity="1.0"
     inkscape:pageopacity="0.0"
     inkscape:pageshadow="2"
     inkscape:zoom="1.4"
     inkscape:cx="289.49894"
     inkscape:cy="116.50186"
     inkscape:document-units="px"
     inkscape:current-layer="layer1"
     showgrid="false"
     inkscape:window-width="1920"
     inkscape:window-height="1057"
     inkscape:window-x="-8"
     inkscape:window-y="1072"
     inkscape:window-maximized="1" />
  <metadata
     id="metadata3946">
    <rdf:RDF>
      <cc:Work
         rdf:about="">
        <dc:format>image/svg+xml</dc:format>
        <dc:type
           rdf:resource="http://purl.org/dc/dcmitype/StillImage" />
        <dc:title></dc:title>
      </cc:Work>
    </rdf:RDF>
  </metadata>
  <g
     inkscape:label="Layer 1"
     inkscape:groupmode="layer"
     id="layer1"
     transform="translate(0,-956.36218)">
    <path
       style="fill:#3a5897;fill-opacity:1;stroke:none"
       d="m 0,956.36216 0,48.00004 0,48 47.96874,0 c 16.00767,0 32.02139,0 48.03125,0 l 0,-48 0,-48.00004 -47.99999,0 c -15.99726,0 -32.00055,0 -48,0 z m 53.625,17.46877 8.5625,0 0,10.78123 -6.6875,0 c -2.36934,0 -2.875,0.95692 -2.875,3.40627 l 0,5.93749 9.5625,0 -0.90625,10.37508 -8.65625,0 0,31.0624 -12.40626,0 0,-30.9062 -6.43749,0 0,-10.53128 6.43749,0 0,-8.28125 c 0,-7.77734 4.18226,-11.84374 13.40626,-11.84374 z"
       id="rect3067-8-7"
       inkscape:connector-curvature="0"
       sodipodi:nodetypes="cccccccccsccssccccccccccss" />
  </g>
</svg>
