<?xml version="1.0" encoding="UTF-8" standalone="no"?>
<!-- Created with Inkscape (http://www.inkscape.org/) -->

<svg
   xmlns:dc="http://purl.org/dc/elements/1.1/"
   xmlns:cc="http://creativecommons.org/ns#"
   xmlns:rdf="http://www.w3.org/1999/02/22-rdf-syntax-ns#"
   xmlns:svg="http://www.w3.org/2000/svg"
   xmlns="http://www.w3.org/2000/svg"
   xmlns:sodipodi="http://sodipodi.sourceforge.net/DTD/sodipodi-0.dtd"
   xmlns:inkscape="http://www.inkscape.org/namespaces/inkscape"
   width="96"
   height="96"
   id="svg3941"
   version="1.1"
   inkscape:version="0.48.5 r10040"
   sodipodi:docname="orcid_gray.svg">
  <defs
     id="defs3943" />
  <sodipodi:namedview
     id="base"
     pagecolor="#ffffff"
     bordercolor="#666666"
     borderopacity="1.0"
     inkscape:pageopacity="0.0"
     inkscape:pageshadow="2"
     inkscape:zoom="1.4"
     inkscape:cx="289.49894"
     inkscape:cy="116.50186"
     inkscape:document-units="px"
     inkscape:current-layer="layer1"
     showgrid="false"
     inkscape:window-width="1920"
     inkscape:window-height="1057"
     inkscape:window-x="-8"
     inkscape:window-y="1072"
     inkscape:window-maximized="1" />
  <metadata
     id="metadata3946">
    <rdf:RDF>
      <cc:Work
         rdf:about="">
        <dc:format>image/svg+xml</dc:format>
        <dc:type
           rdf:resource="http://purl.org/dc/dcmitype/StillImage" />
        <dc:title></dc:title>
      </cc:Work>
    </rdf:RDF>
  </metadata>
  <g
     inkscape:label="Layer 1"
     inkscape:groupmode="layer"
     id="layer1"
     transform="translate(0,-956.36218)">
    <path
       inkscape:connector-curvature="0"
       style="fill:#a6ce39;fill-opacity:1;stroke:none"
       d="m 0,956.36214 0,96.00006 96.000003,0 0,-96.00006 -96.000003,0 z m 26.90625,22.18754 c 2.45789,0 4.437503,1.8965 4.437503,4.25 0,2.3534 -1.979613,4.2812 -4.437503,4.2812 -2.45789,0 -4.46875,-1.9278 -4.46875,-4.2812 0,-2.3535 2.01086,-4.25 4.46875,-4.25 z m -4.125,11.1875 7.9375,0.094 0,40.62502 -7.9375,-0.125 0,-40.59382 z m 14.875003,0.2187 6.875,0 10.78125,0 c 1.21996,0 2.69336,0.1131 4.34375,0.4063 9.65836,1.9445 16.90625,10.10222 16.90625,19.84372 0,9.724 -7.24268,17.8591 -16.875,19.8125 -1.32343,0.2665 -2.44337,0.4081 -4.375,0.4375 l -10.78125,0 -6.875,0 0,-40.50002 z m 6.875,6.4688 0,27.40622 10.78125,0 c 7.86276,-0.1344 14.15625,-6.2203 14.15625,-13.7187 0,-7.2641 -5.91886,-13.19812 -13.4375,-13.68752 l -11.5,0 z"
       id="rect4303" />
  </g>
</svg>
