<?xml version="1.0" encoding="UTF-8" standalone="no"?>
<!-- Created with Inkscape (http://www.inkscape.org/) -->

<svg
   xmlns:dc="http://purl.org/dc/elements/1.1/"
   xmlns:cc="http://creativecommons.org/ns#"
   xmlns:rdf="http://www.w3.org/1999/02/22-rdf-syntax-ns#"
   xmlns:svg="http://www.w3.org/2000/svg"
   xmlns="http://www.w3.org/2000/svg"
   xmlns:sodipodi="http://sodipodi.sourceforge.net/DTD/sodipodi-0.dtd"
   xmlns:inkscape="http://www.inkscape.org/namespaces/inkscape"
   width="96"
   height="96"
   id="svg3941"
   version="1.1"
   inkscape:version="0.48.5 r10040"
   sodipodi:docname="skype_gray.svg">
  <defs
     id="defs3943" />
  <sodipodi:namedview
     id="base"
     pagecolor="#ffffff"
     bordercolor="#666666"
     borderopacity="1.0"
     inkscape:pageopacity="0.0"
     inkscape:pageshadow="2"
     inkscape:zoom="1.4"
     inkscape:cx="289.49894"
     inkscape:cy="116.50186"
     inkscape:document-units="px"
     inkscape:current-layer="layer1"
     showgrid="false"
     inkscape:window-width="1920"
     inkscape:window-height="1057"
     inkscape:window-x="-8"
     inkscape:window-y="1072"
     inkscape:window-maximized="1" />
  <metadata
     id="metadata3946">
    <rdf:RDF>
      <cc:Work
         rdf:about="">
        <dc:format>image/svg+xml</dc:format>
        <dc:type
           rdf:resource="http://purl.org/dc/dcmitype/StillImage" />
        <dc:title></dc:title>
      </cc:Work>
    </rdf:RDF>
  </metadata>
  <g
     inkscape:label="Layer 1"
     inkscape:groupmode="layer"
     id="layer1"
     transform="translate(0,-956.36218)">
    <path
       style="fill:#00aeef;fill-opacity:1;stroke:none"
       d="m 0,956.36216 0,48.00004 c 0,15.9972 0,32.0005 0,48 l 47.96875,0 c 16.00766,0 32.02138,0 48.03125,0 l 0,-47.9688 c 0,-16.00765 0,-32.02137 0,-48.03124 l -48,0 c -15.99724,0 -32.00055,0 -48,0 z m 34.71875,17.87501 c 3.13199,0 6.03866,0.88732 8.53125,2.40624 1.68472,-0.31306 3.44382,-0.5 5.21875,-0.5 15.58567,0 28.21876,12.63155 28.21876,28.21879 0,1.6794 -0.1576,3.339 -0.43751,4.9375 1.56667,2.5231 2.46875,5.4984 2.46875,8.6875 0,9.0963 -7.3739,16.4674 -16.46875,16.4687 -3.11342,0 -6.01802,-0.8746 -8.5,-2.375 -1.71391,0.3264 -3.47183,0.5 -5.28125,0.5 -15.587,0 -28.25,-12.6341 -28.25,-28.2187 0,-1.7139 0.17558,-3.3723 0.46875,-5.00003 -1.55206,-2.51252 -2.4375,-5.48574 -2.4375,-8.65625 0,-9.09629 7.3739,-16.46875 16.46875,-16.46875 z M 47,984.26841 c -8.52824,0.1248 -13.84375,5.04158 -13.84375,11.96876 0,13.65443 22.84375,9.20973 22.84375,16.46873 0,2.0098 -1.80611,4.9063 -7.09375,4.9063 -7.53482,0 -7.48693,-7.0313 -12.21875,-7.0313 -1.87972,0 -3.29916,1.732 -3.3125,3.625 -0.0398,6.2721 8.02491,9.9063 16.0625,9.9063 9.13863,0 15.28125,-5.0086 15.28125,-12.6563 C 64.71875,998.18755 42,1001.7013 42,995.67467 c 0,-2.8853 2.70793,-4.21875 5.90625,-4.21875 7.08645,0 7.47878,5.5 11.59375,5.5 2.82025,0 4.47212,-1.9002 4.21875,-4.34375 -0.51868,-3.73828 -5.8686,-7.74797 -14.96875,-8.28125 -0.59629,-0.0351 -1.18145,-0.0708 -1.75,-0.0625 z"
       id="rect3067-8-5-1-6"
       inkscape:connector-curvature="0"
       sodipodi:nodetypes="cccccccccscsscsccsscssssssscsssssccs" />
  </g>
</svg>
